# Rhino

mtllib !objFULL.mtl
g new2
o object_1
usemtl Default
v -1.50086259841919 -1.480297410283175e-16 0.7504312992095947
v -1.50086259841919 -0.3752156496047974 0.3752156496047974
v -1.50086259841919 0.3752156496047974 0.3752156496047974
v -1.50086259841919 0.7504312992095947 -7.40148665436918e-16
v -1.50086259841919 -0.7504312992095947 -2.590520461378111e-15
v -1.50086259841919 -0.3752156496047974 -0.3752156496047974
v -1.50086259841919 0.3752156496047974 -0.3752156496047974
v -1.50086259841919 1.110223024625157e-16 -0.7504312992095947
v -0.7505545020103455 -0.7504312992095947 -0.7504312992095947
v -0.7504312992095947 -4.440892098500626e-16 1.50086259841919
v -0.7504312992095947 -0.7504312992095947 0.7504312992095947
v -0.7504312992095947 0.7504312992095947 0.7504312992095947
v -0.7504312992095947 1.50086259841919 -2.537652741156556e-16
v -0.7504312992095947 -1.50086259841919 -1.83979812484194e-15
v -0.7504312992095947 0.7504312992095947 -0.7504312992095947
v -0.7504312992095947 4.440892098500626e-16 -1.50086259841919
v -0.3753594160079956 -0.3752156496047974 -1.50086259841919
v -0.3753388822078705 -1.50086259841919 -0.3752156496047974
v -0.3752156496047974 -1.50086259841919 0.3752156496047974
v -0.3752156496047974 1.50086259841919 0.3752156496047974
v -0.3752156496047974 1.50086259841919 -0.3752156496047974
v -0.3752156496047974 0.3752156496047974 -1.50086259841919
v -0.0002875255013350397 -0.7504312992095947 -1.50086259841919
v -0.0002464504214003682 -1.50086259841919 -0.7504312992095947
v -8.603339056250346e-16 1.50086259841919 -0.7504312992095947
v -1.200666688103909e-16 0.7504312992095947 -1.50086259841919
v 4.440892098500626e-16 -0.7504312992095947 1.50086259841919
v 5.551115123125783e-16 0.7504312992095947 1.50086259841919
v 8.881784197001252e-16 1.50086259841919 0.7504312992095947
v 1.998401444325282e-15 -1.50086259841919 0.7504312992095947
v 0.3749075829982758 -1.50086259841919 -0.3752156496047974
v 0.3749101459980011 -0.3752156496047974 -1.50086259841919
v 0.3750308156013489 -1.50086259841919 0.3752156496047974
v 0.3750539124011993 0.3752156496047974 -1.50086259841919
v 0.3752156496047974 1.50086259841919 0.3752156496047974
v 0.3752156496047974 1.50086259841919 -0.3752156496047974
v 0.7500616312026978 -1.50086259841919 -7.215491983437528e-16
v 0.7500846982002258 -0.7504312992095947 -0.7504312992095947
v 0.7501078248023987 -1.110223024625157e-16 -1.50086259841919
v 0.7502695322036743 0.7504312992095947 -0.7504312992095947
v 0.7504312992095947 0 1.50086259841919
v 0.7504312992095947 -0.7504312992095947 0.7504312992095947
v 0.7504312992095947 0.7504312992095947 0.7504312992095947
v 0.7504312992095947 1.50086259841919 -2.065718964291844e-15
v 1.500575065612793 -0.7504312992095947 1.221692242846467e-15
v 1.500575065612793 -0.3752156496047974 -0.3752156496047974
v 1.500575065612793 1.480297410283175e-16 -0.7504312992095947
v 1.500718832015991 -0.3752156496047974 0.3752156496047974
v 1.500718832015991 0.3752156496047974 -0.3752156496047974
v 1.50086259841919 -4.440892098500626e-16 0.7504312992095947
v 1.50086259841919 0.3752156496047974 0.3752156496047974
v 1.50086259841919 0.7504312992095947 -1.526349135787513e-15
vt 0.625 0.75
vt 0.625 0.875
vt 0.686767578125 0.875
vt 0.74853515625 0.75
vt 0.74853515625 0.875
vt 0.686767578125 0.75
vt 0.74853515625 0.8125
vt 0.625 0.8125
vt 0 0
vt 0 0.125
vt 0.12353515625 0
vt 0.12353515625 0.125
vt 0.061767578125 0
vt 0.12353515625 0.0625
vt 0.061767578125 0.125
vt 0 0.0625
vt 0.74853515625 0.5
vt 0.625 0.5
vt 0.74853515625 0.625
vt 0.625 0.625
vt 0.74853515625 0.5625
vt 0.6867794394493103 0.625
vt 0.625 0.5625254511833191
vt 0.6867808699607849 0.5
vt 0.62353515625 0.5
vt 0.5 0.5
vt 0.62353515625 0.75
vt 0.5 0.75
vt 0.561767578125 0.75
vt 0.62353515625 0.625
vt 0.561767578125 0.5
vt 0.24853515625 0.5
vt 0 0.5
vt 0.24853515625 0.62353515625
vt 0 0.62353515625
vt 0.124267578125 0.62353515625
vt 0.124267578125 0.5
vt 0.49853515625 0.5
vt 0.375 0.5
vt 0.49853515625 0.74853515625
vt 0.375 0.74853515625
vt 0.49853515625 0.624267578125
vt 0.24853515625 0.3333333432674408
vt 0 0.3333333432674408
vt 0.24853515625 0.4583333432674408
vt 0 0.4583333432674408
vt 0.24853515625 0.3958333432674408
vt 0.124267578125 0.3333333432674408
vt 0 0.3958179354667664
vt 0.37353515625 0.5
vt 0.25 0.5
vt 0.37353515625 0.74853515625
vt 0.25 0.74853515625
vt 0.25 0.624267578125
vt 0.37353515625 0.624267578125
vt 0.24853515625 0.1666666716337204
vt 0 0.1666666716337204
vt 0.24853515625 0.2916666567325592
vt 0 0.2916666567325592
vt 0.124267578125 0.1666666716337204
vt 0 0.2291666716337204
vt 0.49853515625 0.75
vt 0.375 0.75
vt 0.49853515625 0.99853515625
vt 0.375 0.99853515625
vt 0.4367542564868927 0.99853515625
vt 0.49853515625 0.874267578125
vt 0.436767578125 0.75
vt 0.49853515625 0.125
vt 0.25 0.125
vt 0.49853515625 0.24853515625
vt 0.25 0.24853515625
vt 0.374267578125 0.24853515625
vt 0.374267578125 0.125
vt 0.37353515625 0.75
vt 0.25 0.75
vt 0.37353515625 0.99853515625
vt 0.25 0.99853515625
vt 0.25 0.8742437958717346
vt 0.37353515625 0.8742573857307434
vt 0.49853515625 0
vt 0.25 0
vt 0.49853515625 0.12353515625
vt 0.25 0.12353515625
vt 0.49853515625 0.061767578125
vt 0.3742777705192566 0
vt 0.25 0.06177433580160141
vt 0.74853515625 0
vt 0.625 0
vt 0.74853515625 0.25
vt 0.625 0.25
vt 0.686767578125 0.25
vt 0.74853515625 0.125
vt 0.686767578125 0
vt 0.49853515625 0.375
vt 0.25 0.375
vt 0.49853515625 0.49853515625
vt 0.25 0.49853515625
vt 0.374267578125 0.375
vt 0.62353515625 0
vt 0.5 0
vt 0.62353515625 0.25
vt 0.5 0.25
vt 0.5 0.125
vt 0.62353515625 0.125
vt 0.49853515625 0.25
vt 0.25 0.25
vt 0.49853515625 0.37353515625
vt 0.25 0.37353515625
vt 0.49853515625 0.3117064535617828
vt 0.374267578125 0.25
vt 0.25 0.3117067217826843
vt 0 0.625
vt 0 0.74853515625
vt 0.24853515625 0.625
vt 0.24853515625 0.74853515625
vt 0.124267578125 0.625
vt 0 0.686767578125
vt 0.125 0.75
vt 0.125 0.99853515625
vt 0.24853515625 0.75
vt 0.24853515625 0.99853515625
vt 0.24853515625 0.874267578125
vt 0.125 0.874267578125
vt 0 0.75
vt 0 0.875
vt 0.12353515625 0.75
vt 0.12353515625 0.875
vt 0.12353515625 0.8125153779983521
vt 0.061767578125 0.875
vt 0 0.8125102519989014
vt 0.06174222379922867 0.75
vt 0.125 0
vt 0.125 0.125
vt 0.24853515625 0
vt 0.24853515625 0.125
vt 0.186767578125 0.125
vt 0.125 0.0625
vt 0.186767578125 0
vt 0.24853515625 0.0625
vn 1 -4.082240560941263e-15 4.082240560941263e-15
vn 1 -3.768221730471571e-15 3.768221730471571e-15
vn 1 -3.611212738753198e-15 3.925231145706417e-15
vn 1 -3.768221730471571e-15 4.396258967894482e-15
vn 1 -3.454203323518352e-15 4.082240560941263e-15
vn 1 -3.925231145706417e-15 4.239249552659636e-15
vn 1 -3.611212738753198e-15 4.239249552659636e-15
vn 1 -4.082240560941263e-15 4.082240560941263e-15
vn -1 6.280369727251149e-16 -6.902532920683853e-31
vn -1 -6.280369727251149e-16 -1.25607394545023e-15
vn -1 -4.710277163089464e-16 1.09906474197362e-15
vn -1 -1.727101661759176e-15 -1.570092431812787e-16
vn -1 7.850462159063936e-17 5.495323709868102e-16
vn -1 -1.09906474197362e-15 4.710277163089464e-16
vn -1 -1.020560140235316e-15 -5.495323709868102e-16
vn -1 7.850462159063936e-17 -5.495323709868102e-16
vn 3.925231145706417e-15 3.297194120041743e-15 1
vn 9.420554326178927e-16 3.140184863625574e-16 1
vn 6.908406647036704e-15 3.140184863625574e-16 1
vn 3.925231145706417e-15 -2.669157094377069e-15 1
vn 5.416818896371561e-15 1.805606369376599e-15 1
vn 5.416818896371561e-15 -1.177569343711925e-15 1
vn 2.433643395041273e-15 -1.177569343711925e-15 1
vn 2.433643395041273e-15 1.805606369376599e-15 1
vn 0.5773502588272095 -0.5773502588272095 0.5773502588272095
vn 0.5773502588272095 -0.5773502588272095 0.5773502588272095
vn 0.5773502588272095 -0.5773502588272095 0.5773502588272095
vn 0.5773502588272095 -0.5773502588272095 0.5773502588272095
vn 0.5773502588272095 -0.5773502588272095 0.5773502588272095
vn 0.5773502588272095 -0.5773502588272095 0.5773502588272095
vn 0.5773502588272095 -0.5773502588272095 0.5773502588272095
vn 0.5773502588272095 -0.5773502588272095 0.5773502588272095
vn 0.5773502588272095 -0.5773502588272095 0.5773502588272095
vn 0.5773502588272095 -0.5773502588272095 0.5773502588272095
vn 0.5773502588272095 -0.5773502588272095 0.5773502588272095
vn 0.5773502588272095 -0.5773502588272095 0.5773502588272095
vn 0.5773502588272095 -0.5773502588272095 0.5773502588272095
vn -0.5773502588272095 0.5773502588272095 -0.5773502588272095
vn -0.5773502588272095 0.5773502588272095 -0.5773502588272095
vn -0.5773502588272095 0.5773502588272095 -0.5773502588272095
vn -0.5773502588272095 0.5773502588272095 -0.5773502588272095
vn -0.5773502588272095 0.5773502588272095 -0.5773502588272095
vn -0.5773502588272095 0.5773502588272095 -0.5773502588272095
vn -0.5773502588272095 0.5773502588272095 -0.5773502588272095
vn -0.5773502588272095 0.5773502588272095 -0.5773502588272095
vn -0.5773502588272095 0.5773502588272095 -0.5773502588272095
vn -0.5773502588272095 0.5773502588272095 -0.5773502588272095
vn -0.5773502588272095 0.5773502588272095 -0.5773502588272095
vn -0.5773502588272095 0.5773502588272095 -0.5773502588272095
vn 0.5773502588272095 0.5773502588272095 -0.5773502588272095
vn 0.5773502588272095 0.5773502588272095 -0.5773502588272095
vn 0.5773502588272095 0.5773502588272095 -0.5773502588272095
vn 0.5773502588272095 0.5773502588272095 -0.5773502588272095
vn 0.5773502588272095 0.5773502588272095 -0.5773502588272095
vn 0.5773502588272095 0.5773502588272095 -0.5773502588272095
vn 0.5773502588272095 0.5773502588272095 -0.5773502588272095
vn 0.5773502588272095 0.5773502588272095 -0.5773502588272095
vn 0.5773502588272095 0.5773502588272095 -0.5773502588272095
vn 0.5773502588272095 0.5773502588272095 -0.5773502588272095
vn 0.5773502588272095 0.5773502588272095 -0.5773502588272095
vn 0.5773502588272095 0.5773502588272095 -0.5773502588272095
vn -0.5773502588272095 -0.5773502588272095 0.5773502588272095
vn -0.5773502588272095 -0.5773502588272095 0.5773502588272095
vn -0.5773502588272095 -0.5773502588272095 0.5773502588272095
vn -0.5773502588272095 -0.5773502588272095 0.5773502588272095
vn -0.5773502588272095 -0.5773502588272095 0.5773502588272095
vn -0.5773502588272095 -0.5773502588272095 0.5773502588272095
vn -0.5773502588272095 -0.5773502588272095 0.5773502588272095
vn -0.5773502588272095 -0.5773502588272095 0.5773502588272095
vn -0.5773502588272095 -0.5773502588272095 0.5773502588272095
vn -0.5773502588272095 -0.5773502588272095 0.5773502588272095
vn -0.5773502588272095 -0.5773502588272095 0.5773502588272095
vn -0.5773502588272095 -0.5773502588272095 0.5773502588272095
vn -0.5773502588272095 -0.5773502588272095 0.5773502588272095
vn 0.5773502588272095 0.5773502588272095 0.5773502588272095
vn 0.5773502588272095 0.5773502588272095 0.5773502588272095
vn 0.5773502588272095 0.5773502588272095 0.5773502588272095
vn 0.5773502588272095 0.5773502588272095 0.5773502588272095
vn 0.5773502588272095 0.5773502588272095 0.5773502588272095
vn 0.5773502588272095 0.5773502588272095 0.5773502588272095
vn 0.5773502588272095 0.5773502588272095 0.5773502588272095
vn 0.5773502588272095 0.5773502588272095 0.5773502588272095
vn 0.5773502588272095 0.5773502588272095 0.5773502588272095
vn 0.5773502588272095 0.5773502588272095 0.5773502588272095
vn 0.5773502588272095 0.5773502588272095 0.5773502588272095
vn 0.5773502588272095 0.5773502588272095 0.5773502588272095
vn 0.5773502588272095 0.5773502588272095 0.5773502588272095
vn -0.5773502588272095 -0.5773502588272095 -0.5773502588272095
vn -0.5773502588272095 -0.5773502588272095 -0.5773502588272095
vn -0.5773502588272095 -0.5773502588272095 -0.5773502588272095
vn -0.5773502588272095 -0.5773502588272095 -0.5773502588272095
vn -0.5773502588272095 -0.5773502588272095 -0.5773502588272095
vn -0.5773502588272095 -0.5773502588272095 -0.5773502588272095
vn -0.5773502588272095 -0.5773502588272095 -0.5773502588272095
vn -0.5773502588272095 -0.5773502588272095 -0.5773502588272095
vn -0.5773502588272095 -0.5773502588272095 -0.5773502588272095
vn -0.5773502588272095 -0.5773502588272095 -0.5773502588272095
vn -0.5773502588272095 -0.5773502588272095 -0.5773502588272095
vn -0.5773502588272095 -0.5773502588272095 -0.5773502588272095
vn -0.5773502588272095 0.5773502588272095 0.5773502588272095
vn -0.5773502588272095 0.5773502588272095 0.5773502588272095
vn -0.5773502588272095 0.5773502588272095 0.5773502588272095
vn -0.5773502588272095 0.5773502588272095 0.5773502588272095
vn -0.5773502588272095 0.5773502588272095 0.5773502588272095
vn -0.5773502588272095 0.5773502588272095 0.5773502588272095
vn -0.5773502588272095 0.5773502588272095 0.5773502588272095
vn -0.5773502588272095 0.5773502588272095 0.5773502588272095
vn -0.5773502588272095 0.5773502588272095 0.5773502588272095
vn -0.5773502588272095 0.5773502588272095 0.5773502588272095
vn -0.5773502588272095 0.5773502588272095 0.5773502588272095
vn -0.5773502588272095 0.5773502588272095 0.5773502588272095
vn -0.5773502588272095 0.5773502588272095 0.5773502588272095
vn 0.5773502588272095 -0.5773502588272095 -0.5773502588272095
vn 0.5773502588272095 -0.5773502588272095 -0.5773502588272095
vn 0.5773502588272095 -0.5773502588272095 -0.5773502588272095
vn 0.5773502588272095 -0.5773502588272095 -0.5773502588272095
vn 0.5773502588272095 -0.5773502588272095 -0.5773502588272095
vn 0.5773502588272095 -0.5773502588272095 -0.5773502588272095
vn 0.5773502588272095 -0.5773502588272095 -0.5773502588272095
vn 0.5773502588272095 -0.5773502588272095 -0.5773502588272095
vn 0.5773502588272095 -0.5773502588272095 -0.5773502588272095
vn 0.5773502588272095 -0.5773502588272095 -0.5773502588272095
vn 0.5773502588272095 -0.5773502588272095 -0.5773502588272095
vn 0.5773502588272095 -0.5773502588272095 -0.5773502588272095
vn 4.710277163089464e-16 1 -4.710277163089464e-16
vn 9.420554326178927e-16 1 0
vn 0 1 0
vn 4.710277163089464e-16 1 4.710277163089464e-16
vn 2.355138581544732e-16 1 2.355138581544732e-16
vn 7.065416274029787e-16 1 2.355138581544732e-16
vn 7.065416274029787e-16 1 -2.355138581544732e-16
vn 3.140184863625574e-16 1 -3.140184863625574e-16
vn 0 -1 0
vn 0 -1 0
vn 0 -1 0
vn 0 -1 0
vn 0 -1 0
vn 7.850462159063936e-17 -1 -7.850462159063936e-17
vn 0 -1 0
vn 0 -1 0
f 7/8/8 4/1/1 3/6/6
f 7/8/8 6/3/3 8/2/2
f 6/3/3 7/8/8 3/6/6
f 3/6/6 2/7/7 6/3/3
f 2/7/7 5/5/5 6/3/3
f 1/4/4 2/7/7 3/6/6
f 46/14/14 48/15/15 51/16/16
f 51/16/16 48/15/15 50/10/10
f 49/13/13 51/16/16 52/9/9
f 46/14/14 49/13/13 47/11/11
f 46/14/14 45/12/12 48/15/15
f 49/13/13 46/14/14 51/16/16
f 34/24/24 26/17/17 22/21/21
f 34/24/24 32/23/23 39/18/18
f 17/22/22 34/24/24 22/21/21
f 34/24/24 17/22/22 32/23/23
f 17/22/22 23/20/20 32/23/23
f 16/19/19 17/22/22 22/21/21
f 15/30/30 25/25/25 21/31/31
f 13/26/26 4/28/28 7/29/29 21/31/31
f 7/29/29 8/27/27 15/30/30
f 15/30/30 21/31/31 7/29/29
f 15/37/37 22/36/36 26/34/34 25/32/32
f 8/33/33 16/35/35 22/36/36 15/37/37
f 42/42/42 41/39/39 50/38/38
f 27/41/41 42/42/42 30/40/40
f 41/39/39 42/42/42 27/41/41
f 48/47/47 42/48/48 50/43/43
f 33/49/49 30/44/44 42/48/48
f 48/47/47 45/45/45 37/46/46 33/49/49
f 42/48/48 48/47/47 33/49/49
f 10/50/50 11/55/55 2/54/54 1/51/51
f 5/53/53 2/54/54 11/55/55 14/52/52
f 27/58/58 11/60/60 10/56/56
f 19/61/61 14/57/57 11/60/60
f 30/59/59 19/61/61 27/58/58
f 11/60/60 27/58/58 19/61/61
f 40/67/67 44/62/62 36/68/68
f 25/63/63 26/65/65 34/66/66 36/68/68
f 34/66/66 39/64/64 40/67/67
f 40/67/67 36/68/68 34/66/66
f 40/74/74 49/73/73 52/71/71 44/69/69
f 39/70/70 47/72/72 49/73/73 40/74/74
f 17/79/79 16/76/76 8/75/75 9/80/80
f 9/80/80 24/77/77 23/78/78 17/79/79
f 6/85/85 9/86/86 8/81/81
f 18/87/87 24/82/82 9/86/86
f 6/85/85 5/83/83 14/84/84 18/87/87
f 9/86/86 6/85/85 18/87/87
f 43/93/93 29/88/88 35/94/94
f 44/89/89 52/91/91 51/92/92 35/94/94
f 51/92/92 50/90/90 43/93/93
f 43/93/93 35/94/94 51/92/92
f 28/97/97 29/95/95 43/99/99
f 50/96/96 41/98/98 43/99/99
f 28/97/97 43/99/99 41/98/98
f 39/100/100 38/105/105 46/104/104 47/101/101
f 45/103/103 46/104/104 38/105/105 37/102/102
f 32/110/110 38/111/111 39/106/106
f 31/112/112 37/107/107 38/111/111
f 32/110/110 23/108/108 24/109/109 31/112/112
f 38/111/111 32/110/110 31/112/112
f 12/117/117 13/113/113 20/118/118
f 28/116/116 20/118/118 29/114/114
f 28/116/116 10/115/115 12/117/117
f 20/118/118 28/116/116 12/117/117
f 12/124/124 3/123/123 4/121/121 13/119/119
f 10/120/120 1/122/122 3/123/123 12/124/124
f 18/131/131 31/132/132 24/125/125
f 18/131/131 14/126/126 19/130/130
f 33/129/129 31/132/132 18/131/131
f 18/131/131 19/130/130 33/129/129
f 33/129/129 19/130/130 30/128/128
f 37/127/127 31/132/132 33/129/129
f 36/138/138 44/133/133 35/139/139
f 36/138/138 21/137/137 25/134/134
f 21/137/137 36/138/138 35/139/139
f 35/139/139 20/140/140 21/137/137
f 20/140/140 13/136/136 21/137/137
f 29/135/135 20/140/140 35/139/139
