# Rhino

mtllib !objFULLgore3.mtl
g new2
o object_1
usemtl Default
v -1.50086259841919 4.440892098500626e-16 0.7504312992095947
v -1.50086259841919 0.7504312992095947 -1.110223024625157e-15
v -1.50086259841919 -4.440892098500626e-16 -0.7504312992095947
v -1.125646948814392 0 -1.125646948814392
v -0.7504312992095947 -4.440892098500626e-16 1.50086259841919
v -0.7504312992095947 0.7504312992095947 0.7504312992095947
v -0.7504312992095947 1.50086259841919 -2.537652741156556e-16
v -0.7504312992095947 0.7504312992095947 -0.7504312992095947
v -0.7504312992095947 4.440892098500626e-16 -1.50086259841919
v -0.3752156496047974 1.50086259841919 0.3752156496047974
v -0.3752156496047974 1.50086259841919 -0.3752156496047974
v -0.3752156496047974 0.3752156496047974 -1.50086259841919
v -8.603339056250346e-16 1.50086259841919 -0.7504312992095947
v -1.924215995933925e-17 0.7504312992095947 -1.50086259841919
v 5.551115123125783e-16 0.7504312992095947 1.50086259841919
v 8.881784197001252e-16 1.50086259841919 0.7504312992095947
v 1.332267629550188e-15 -0.7504312992095947 -1.50086259841919
v 0.3752156496047974 1.50086259841919 0.3752156496047974
v 0.3752156496047974 1.50086259841919 -0.3752156496047974
v 0.3752156496047974 0.3752156496047974 -1.50086259841919
v 0.7504312992095947 4.440892098500626e-16 1.50086259841919
v 0.7504312992095947 0.7504312992095947 0.7504312992095947
v 0.7504312992095947 1.50086259841919 -2.065718964291844e-15
v 0.7504312992095947 0.7504312992095947 -0.7504312992095947
v 0.7504312992095947 -4.440892098500626e-16 -1.50086259841919
v 1.50086259841919 -4.440892098500626e-16 0.7504312992095947
v 1.50086259841919 0.7504312992095947 -2.289523703681269e-15
v 1.50086259841919 4.440892098500626e-16 -0.7504312992095947
vt 0.3985351622104645 0.4000000059604645
vt 0.2000000029802322 0.4000000059604645
vt 0.3985351622104645 0.798535168170929
vt 0.2000000029802322 0.798535168170929
vt 0.3985351622104645 0.5992676019668579
vt 0.299267590045929 0.4000000059604645
vt 0.800000011920929 0.4000000059604645
vt 0.800000011920929 0.798535168170929
vt 0.8992675542831421 0.798535168170929
vt 0.99853515625 0.4000000059604645
vt 0.99853515625 0.798535168170929
vt 0.800000011920929 0.5992676019668579
vt 0.99853515625 0.5992676019668579
vt 0.1985351592302322 0.4000000059604645
vt 0 0.4000000059604645
vt 0.1985351592302322 0.798535168170929
vt 0 0.798535168170929
vt 0.1985351592302322 0.5992676019668579
vt 0.09926757961511612 0.798535168170929
vt 0.09926757961511612 0.4000000059604645
vt 0.6000000238418579 0.4000000059604645
vt 0.6000000238418579 0.798535168170929
vt 0.798535168170929 0.4000000059604645
vt 0.798535168170929 0.798535168170929
vt 0.6000000238418579 0.5992676019668579
vt 0.8999999761581421 0
vt 0.699999988079071 0
vt 0.8999999761581421 0.3985351622104645
vt 0.699999988079071 0.3985351622104645
vt 0.8999999761581421 0.1992675811052322
vt 0.800000011920929 0
vt 0.3985351622104645 0.2000000029802322
vt 0 0.2000000029802322
vt 0.3985351622104645 0.3985351622104645
vt 0 0.3985351622104645
vt 0.1992675811052322 0.2000000029802322
vt 0.6000000238418579 0
vt 0.4000000059604645 0
vt 0.6000000238418579 0.3985351622104645
vt 0.4000000059604645 0.3985351622104645
vt 0.6000000238418579 0.1992675811052322
vt 0.5 0
vt 0.3985351622104645 0
vt 0 0
vt 0.3985351622104645 0.1985351592302322
vt 0 0.1985351592302322
vt 0.1992675811052322 0
vt 0.5985351800918579 0.6000000238418579
vt 0.4000000059604645 0.6000000238418579
vt 0.5985351800918579 0.798535168170929
vt 0.4000000059604645 0.798535168170929
vt 0.4000000059604645 0.699267566204071
vt 0.499267578125 0.6000000238418579
vt 0.5985351800918579 0.699267566204071
vt 0.499267578125 0.798535168170929
vt 0.5985351800918579 0.4000000059604645
vt 0.4000000059604645 0.4000000059604645
vt 0.5985351800918579 0.5985351800918579
vt 0.4000000059604645 0.5985351800918579
vt 0.5985351800918579 0.499267578125
vt 0.499267578125 0.4000000059604645
vn -0.5773502588272095 0.5773502588272095 -0.5773502588272095
vn -0.5773502588272095 0.5773502588272095 -0.5773502588272095
vn -0.5773502588272095 0.5773502588272095 -0.5773502588272095
vn -0.5773502588272095 0.5773502588272095 -0.5773502588272095
vn -0.5773502588272095 0.5773502588272095 -0.5773502588272095
vn -0.5773502588272095 0.5773502588272095 -0.5773502588272095
vn -0.5773502588272095 0.5773502588272095 -0.5773502588272095
vn -0.5773502588272095 0.5773502588272095 -0.5773502588272095
vn -0.5773502588272095 0.5773502588272095 -0.5773502588272095
vn -0.5773502588272095 0.5773502588272095 -0.5773502588272095
vn -0.5773502588272095 0.5773502588272095 -0.5773502588272095
vn -0.5773502588272095 0.5773502588272095 -0.5773502588272095
vn -0.5773502588272095 0.5773502588272095 -0.5773502588272095
vn 0.5773502588272095 0.5773502588272095 -0.5773502588272095
vn 0.5773502588272095 0.5773502588272095 -0.5773502588272095
vn 0.5773502588272095 0.5773502588272095 -0.5773502588272095
vn 0.5773502588272095 0.5773502588272095 -0.5773502588272095
vn 0.5773502588272095 0.5773502588272095 -0.5773502588272095
vn 0.5773502588272095 0.5773502588272095 -0.5773502588272095
vn 0.5773502588272095 0.5773502588272095 -0.5773502588272095
vn 0.5773502588272095 0.5773502588272095 -0.5773502588272095
vn 0.5773502588272095 0.5773502588272095 -0.5773502588272095
vn 0.5773502588272095 0.5773502588272095 -0.5773502588272095
vn 0.5773502588272095 0.5773502588272095 -0.5773502588272095
vn 0.5773502588272095 0.5773502588272095 -0.5773502588272095
vn 0.5773502588272095 0.5773502588272095 0.5773502588272095
vn 0.5773502588272095 0.5773502588272095 0.5773502588272095
vn 0.5773502588272095 0.5773502588272095 0.5773502588272095
vn 0.5773502588272095 0.5773502588272095 0.5773502588272095
vn 0.5773502588272095 0.5773502588272095 0.5773502588272095
vn 0.5773502588272095 0.5773502588272095 0.5773502588272095
vn 0.5773502588272095 0.5773502588272095 0.5773502588272095
vn 0.5773502588272095 0.5773502588272095 0.5773502588272095
vn 0.5773502588272095 0.5773502588272095 0.5773502588272095
vn 0.5773502588272095 0.5773502588272095 0.5773502588272095
vn 0.5773502588272095 0.5773502588272095 0.5773502588272095
vn -0.5773502588272095 0.5773502588272095 0.5773502588272095
vn -0.5773502588272095 0.5773502588272095 0.5773502588272095
vn -0.5773502588272095 0.5773502588272095 0.5773502588272095
vn -0.5773502588272095 0.5773502588272095 0.5773502588272095
vn -0.5773502588272095 0.5773502588272095 0.5773502588272095
vn -0.5773502588272095 0.5773502588272095 0.5773502588272095
vn -0.5773502588272095 0.5773502588272095 0.5773502588272095
vn -0.5773502588272095 0.5773502588272095 0.5773502588272095
vn -0.5773502588272095 0.5773502588272095 0.5773502588272095
vn -0.5773502588272095 0.5773502588272095 0.5773502588272095
vn -0.5773502588272095 0.5773502588272095 0.5773502588272095
vn 0 1 0
vn 0 1 0
vn 0 1 0
vn 0 1 0
vn 0 1 0
vn -7.850462159063936e-17 1 7.850462159063936e-17
vn 0 1 0
vn 0 1 0
vn -3.925231145706417e-15 -3.297194120041743e-15 -1
vn -9.420554326178927e-16 -3.140184863625574e-16 -1
vn -6.908406647036704e-15 -3.140184863625574e-16 -1
vn -3.925231145706417e-15 2.669157094377069e-15 -1
vn -5.416818896371561e-15 -1.805606369376599e-15 -1
vn -2.433643395041273e-15 -1.805606369376599e-15 -1
f 8/5/5 11/6/6 13/1/1
f 2/4/4 7/2/2 11/6/6
f 2/4/4 8/5/5 3/3/3
f 11/6/6 8/5/5 2/4/4
f 4/9/9 8/12/12 13/7/7
f 4/9/9 3/8/8 8/12/12
f 4/9/9 14/10/10 12/13/13
f 12/13/13 9/11/11 4/9/9
f 13/7/7 14/10/10 4/9/9
f 24/18/18 19/20/20 23/14/14
f 13/15/15 19/20/20 20/19/19 14/17/17
f 20/19/19 24/18/18 25/16/16
f 24/18/18 20/19/19 19/20/20
f 27/23/23 24/25/25 23/21/21
f 25/22/22 24/25/25 28/24/24
f 27/23/23 28/24/24 24/25/25
f 22/30/30 18/31/31 16/26/26
f 27/29/29 23/27/27 18/31/31
f 27/29/29 22/30/30 26/28/28
f 18/31/31 22/30/30 27/29/29
f 15/34/34 22/36/36 16/32/32
f 26/33/33 22/36/36 21/35/35
f 15/34/34 21/35/35 22/36/36
f 6/41/41 10/42/42 7/37/37
f 15/40/40 16/38/38 10/42/42
f 15/40/40 6/41/41 5/39/39
f 10/42/42 6/41/41 15/40/40
f 2/45/45 6/47/47 7/43/43
f 5/44/44 6/47/47 1/46/46
f 2/45/45 1/46/46 6/47/47
f 19/53/53 18/54/54 23/48/48
f 19/53/53 13/49/49 11/52/52
f 11/52/52 18/54/54 19/53/53
f 18/54/54 11/52/52 10/55/55
f 10/55/55 11/52/52 7/51/51
f 16/50/50 18/54/54 10/55/55
f 12/60/60 14/56/56 20/61/61
f 17/59/59 20/61/61 25/57/57
f 17/59/59 9/58/58 12/60/60
f 20/61/61 17/59/59 12/60/60
